<svg width="20" height="24" viewBox="0 0 20 24" fill="none" xmlns="http://www.w3.org/2000/svg">
<path d="M17.2409 8.65385C17.5726 8.65385 17.8901 8.46409 18.1249 8.1256L19.8167 5.6854C20.0609 5.33338 20.0609 4.76277 19.8167 4.41031L18.1249 1.9701C17.8905 1.63206 17.5726 1.44231 17.2409 1.44231H10.6249V0.360577C10.6249 0.161358 10.4851 0 10.3124 0H9.68741C9.51475 0 9.37491 0.161358 9.37491 0.360577V1.44231H2.1874C1.66983 1.44231 1.2499 2.04763 1.2499 2.79447V7.30168C1.2499 8.04853 1.66983 8.65385 2.1874 8.65385H9.37491V10.0962H2.75889C2.42725 10.0962 2.10928 10.2859 1.8749 10.6239L0.183106 13.0646C-0.0610352 13.4166 -0.0610352 13.9872 0.183106 14.3397L1.8749 16.7794C2.10928 17.1175 2.42725 17.3077 2.75889 17.3077H9.37491V22.7163C9.37491 22.9156 9.51475 23.0769 9.68741 23.0769H10.3124C10.4851 23.0769 10.6249 22.9156 10.6249 22.7163V17.3077H17.8124C18.33 17.3077 18.7499 16.7024 18.7499 15.9555V11.4483C18.7499 10.7015 18.33 10.0962 17.8124 10.0962H10.6249V8.65385H17.2409ZM17.4901 15.8654H2.8417L1.3417 13.7019L2.84365 11.5385H17.4995L17.4901 15.8654ZM2.50967 2.88462H17.1581L18.6581 5.04808L17.1562 7.21154H2.50029L2.50967 2.88462Z" fill="white"/>
</svg>
